<?xml version="1.0" encoding="UTF-8" standalone="no"?>
<!-- Created with Inkscape (http://www.inkscape.org/) -->

<svg
   width="120"
   height="120"
   viewBox="0 0 120 120"
   version="1.1"
   id="svg5"
   inkscape:version="1.1.2 (0a00cf5339, 2022-02-04)"
   sodipodi:docname="github-icon-colored.svg"
   xmlns:inkscape="http://www.inkscape.org/namespaces/inkscape"
   xmlns:sodipodi="http://sodipodi.sourceforge.net/DTD/sodipodi-0.dtd"
   xmlns="http://www.w3.org/2000/svg"
   xmlns:svg="http://www.w3.org/2000/svg">
  <sodipodi:namedview
     id="namedview7"
     pagecolor="#ffffff"
     bordercolor="#666666"
     borderopacity="1.0"
     inkscape:pageshadow="2"
     inkscape:pageopacity="0.0"
     inkscape:pagecheckerboard="0"
     inkscape:document-units="px"
     showgrid="false"
     borderlayer="true"
     inkscape:showpageshadow="false"
     showguides="true"
     inkscape:guide-bbox="true"
     inkscape:lockguides="false"
     inkscape:zoom="0.99583333"
     inkscape:cx="138.07531"
     inkscape:cy="212.38494"
     inkscape:window-width="1366"
     inkscape:window-height="739"
     inkscape:window-x="0"
     inkscape:window-y="0"
     inkscape:window-maximized="1"
     inkscape:current-layer="layer1" />
  <defs
     id="defs2" />
  <g
     inkscape:label="Camada 1"
     inkscape:groupmode="layer"
     id="layer1">
    <path
       style="fill:#ffd748;fill-opacity:1;stroke-width:0.217842"
       d="M 38.848516,112.01331 C 31.427589,108.99702 25.370344,104.92141 19.77816,99.181816 12.51869,91.730999 7.9017846,83.268383 5.5331984,73.071379 4.3653797,68.043801 3.9474396,59.674082 4.619459,54.772686 6.3610424,42.070331 12.202478,30.554638 21.248805,21.989907 29.627542,14.057228 40.029737,9.0158395 51.850991,7.1586695 c 3.041463,-0.477824 9.857754,-0.646854 13.244479,-0.32843 7.654867,0.719718 14.755596,2.813685 21.242512,6.2643145 23.622098,12.56545 34.825338,39.657565 26.771558,64.740078 -5.06262,15.766924 -17.542834,28.760818 -33.197889,34.564278 -2.59328,0.96135 -3.494368,1.11186 -4.556984,0.76117 -1.565231,-0.51658 -1.528427,-0.27095 -1.664042,-11.1056 -0.103144,-8.241104 -0.17729,-9.895524 -0.491795,-10.973699 -0.546801,-1.874511 -1.351827,-3.451898 -2.327212,-4.559989 l -0.865302,-0.983041 1.249365,-0.147736 c 0.687145,-0.08124 2.43566,-0.384071 3.885583,-0.672938 11.87381,-2.365554 18.252931,-8.961396 19.926433,-20.603389 0.35107,-2.442317 0.358964,-8.029444 0.0137,-9.66776 -0.718565,-3.409198 -2.305455,-6.891984 -4.216239,-9.253498 l -1.070457,-1.322954 0.47787,-2.067997 c 0.412601,-1.78553 0.461684,-2.476574 0.359327,-5.059251 -0.11362,-2.867132 -0.394132,-4.42494 -1.175209,-6.526525 -0.279902,-0.753117 -0.466448,-0.94435 -1.022523,-1.048199 -0.862136,-0.161009 -3.117711,0.196508 -4.93726,0.782572 -1.86255,0.599913 -6.264097,2.743654 -8.115278,3.952489 l -1.480281,0.966637 -2.223026,-0.504259 c -4.943893,-1.121451 -10.625968,-1.549394 -15.511354,-1.16823 -2.891314,0.225583 -7.73887,0.980772 -9.583756,1.493029 -0.553379,0.153653 -0.847364,0.055 -1.939339,-0.650778 -1.977699,-1.278248 -6.147331,-3.331789 -8.051714,-3.965464 -2.057326,-0.684565 -4.356584,-1.079524 -5.280278,-0.907029 -0.78769,0.1471 -0.966907,0.471943 -1.658049,3.005314 -0.416923,1.528259 -0.48977,2.334626 -0.487056,5.391419 0.0027,3.045827 0.07152,3.796209 0.450642,4.916793 l 0.44745,1.322405 -0.733674,0.85601 c -2.077049,2.42339 -3.789759,5.935872 -4.4469,9.119881 -0.516698,2.503494 -0.552043,7.519474 -0.07559,10.728139 0.96818,6.520369 3.708859,11.755481 7.896402,15.083371 3.690267,2.932688 9.823823,5.206839 15.699614,5.820979 l 1.293966,0.135253 -0.910177,1.117453 c -1.033539,1.268911 -1.696806,2.686911 -2.256859,4.824934 l -0.386494,1.475474 -1.524334,0.54981 c -1.344781,0.48505 -1.883572,0.55156 -4.574116,0.5646 l -3.049783,0.0148 -1.633816,-0.78386 c -2.084758,-1.00022 -3.571697,-2.350823 -5.114189,-4.645272 -2.34904,-3.494174 -5.311495,-5.612022 -8.283709,-5.921983 -1.795503,-0.187253 -3.001354,0.291227 -2.900695,1.150977 0.06869,0.586955 0.435763,0.928388 3.416465,3.178068 1.58964,1.199787 2.965743,3.157117 4.546516,6.46684 1.264747,2.64804 1.56043,3.08916 3.070372,4.5806 2.562779,2.531374 5.178107,3.616154 9.295314,3.855454 1.945952,0.11311 5.436845,-0.16644 6.322498,-0.50629 0.278179,-0.10675 0.321666,0.58609 0.321666,5.12463 v 5.24802 l -0.621142,0.69518 c -0.542256,0.6069 -0.784321,0.70502 -1.906107,0.77271 -1.164459,0.0703 -1.601645,-0.0512 -4.661523,-1.2949 z"
       id="path2944" />
  </g>
</svg>
