<?xml version="1.0" encoding="UTF-8" standalone="no"?>
<!-- Created with Inkscape (http://www.inkscape.org/) -->

<svg
   width="120"
   height="120"
   viewBox="0 0 120 120"
   version="1.1"
   id="svg5"
   inkscape:version="1.1.2 (0a00cf5339, 2022-02-04)"
   sodipodi:docname="linkedin-icon-colored.svg"
   xmlns:inkscape="http://www.inkscape.org/namespaces/inkscape"
   xmlns:sodipodi="http://sodipodi.sourceforge.net/DTD/sodipodi-0.dtd"
   xmlns="http://www.w3.org/2000/svg"
   xmlns:svg="http://www.w3.org/2000/svg">
  <sodipodi:namedview
     id="namedview7"
     pagecolor="#ffffff"
     bordercolor="#666666"
     borderopacity="1.0"
     inkscape:pageshadow="2"
     inkscape:pageopacity="0.0"
     inkscape:pagecheckerboard="0"
     inkscape:document-units="px"
     showgrid="false"
     borderlayer="true"
     inkscape:showpageshadow="false"
     showguides="true"
     inkscape:guide-bbox="true"
     inkscape:lockguides="false"
     inkscape:zoom="0.99583333"
     inkscape:cx="138.07531"
     inkscape:cy="212.38494"
     inkscape:window-width="1366"
     inkscape:window-height="739"
     inkscape:window-x="0"
     inkscape:window-y="0"
     inkscape:window-maximized="1"
     inkscape:current-layer="layer1">
    <sodipodi:guide
       position="0,120"
       orientation="0,120"
       id="guide5789" />
    <sodipodi:guide
       position="120,120"
       orientation="120,0"
       id="guide5791" />
    <sodipodi:guide
       position="120,0"
       orientation="0,-120"
       id="guide5793" />
    <sodipodi:guide
       position="0,0"
       orientation="-120,0"
       id="guide5795" />
  </sodipodi:namedview>
  <defs
     id="defs2" />
  <g
     inkscape:label="Camada 1"
     inkscape:groupmode="layer"
     id="layer1">
    <path
       style="fill:#ffd748;fill-opacity:1;stroke-width:0.208894"
       d="M 58.019513,113.29609 C 39.203466,112.60443 22.111086,102.00227 13.125626,85.449046 8.7173853,77.32809 6.7075253,69.347317 6.7075253,59.963975 c 0,-6.634965 0.99784,-12.491782 3.0963,-18.173779 C 16.390146,23.956457 31.521036,11.060002 49.977093,7.5494718 c 3.53604,-0.672589 5.91649,-0.881977 10.02691,-0.881977 4.11043,0 6.49088,0.209388 10.02692,0.881977 15.643533,2.9755602 29.063653,12.7570302 36.803717,26.8249862 3.34403,6.077947 5.39364,12.568761 6.23346,19.740485 0.29916,2.55469 0.29916,9.143375 0,11.698065 -1.44095,12.30518 -6.70042,23.232059 -15.341714,31.873354 -10.53235,10.532348 -24.838093,16.156288 -39.706873,15.609728 z m -12.062537,-46.177494 0.0533,-19.270474 h -6.47681 -6.4768 v 19.325715 19.325716 l 6.42349,-0.05524 6.4235,-0.05524 z m 19.896067,7.259067 0.10445,-12.011406 0.54193,-1.148917 c 0.89742,-1.902524 2.74484,-3.471552 4.54536,-3.860393 1.04214,-0.225063 2.84105,-0.159426 3.84468,0.140278 1.281803,0.382776 2.900083,2.043797 3.522623,3.615668 l 0.49639,1.253364 0.10467,12.011406 0.10466,12.011406 6.43483,0.05526 6.43484,0.05526 -0.0758,-13.320029 c -0.0735,-12.914469 -0.0898,-13.372937 -0.5338,-15.05759 -1.90317,-7.220386 -6.77375,-11.115301 -13.9312,-11.140524 -4.776093,-0.01684 -8.091993,1.487765 -10.783803,4.893152 l -0.80982,1.024498 v -2.525488 -2.525487 h -6.47572 -6.47571 v 19.325715 19.325716 l 6.42349,-0.05524 6.42349,-0.05524 z M 42.892766,41.965281 c 3.97787,-1.835519 5.11383,-7.037202 2.24783,-10.293145 -1.08962,-1.237876 -2.25538,-1.902331 -3.89339,-2.219137 -2.5659,-0.49627 -5.51883,0.296683 -7.12044,1.912051 -2.06185,2.079566 -2.41678,5.659216 -0.81216,8.191246 0.76788,1.211694 1.63373,1.900716 3.23692,2.575853 1.04773,0.441228 1.46465,0.498687 3.18976,0.439592 1.59618,-0.05468 2.21285,-0.173346 3.15148,-0.60646 z"
       id="path848" />
  </g>
</svg>
