<?xml version="1.0" standalone="no"?>
<!DOCTYPE svg PUBLIC "-//W3C//DTD SVG 20010904//EN"
 "http://www.w3.org/TR/2001/REC-SVG-20010904/DTD/svg10.dtd">
<svg version="1.0" xmlns="http://www.w3.org/2000/svg"
 width="547.000000pt" height="547.000000pt" viewBox="0 0 547.000000 547.000000"
 preserveAspectRatio="xMidYMid meet">
<metadata>
Created by potrace 1.14, written by Peter Selinger 2001-2017
</metadata>
<g transform="translate(0.000000,547.000000) scale(0.100000,-0.100000)"
fill="#000000" stroke="none">
<path d="M215 2734 l0 -2732 2518 0 c2352 0 2517 1 2505 16 -7 9 -18 22 -24
27 -5 6 -59 64 -120 130 -60 66 -116 127 -124 135 -8 8 -62 67 -120 130 -58
63 -130 142 -162 175 -31 33 -66 71 -78 85 -12 14 -43 48 -68 75 -26 28 -94
102 -152 165 -58 63 -114 124 -125 136 -11 12 -44 48 -74 80 -30 33 -79 86
-110 119 -54 58 -230 250 -280 304 -47 51 -217 237 -271 295 -79 86 -75 82
-190 206 -58 63 -161 175 -230 250 -69 75 -170 185 -225 245 -55 59 -105 113
-110 119 -6 6 -62 67 -125 136 -63 69 -138 150 -166 180 -28 30 -62 67 -75 81
-29 32 -189 206 -283 309 -38 41 -74 80 -80 85 -6 6 -51 55 -101 110 -49 55
-99 109 -110 121 -11 11 -65 69 -120 129 -115 125 -185 202 -340 370 -107 115
-155 168 -299 325 -38 41 -92 100 -120 130 -28 30 -103 111 -166 180 -63 69
-119 130 -125 136 -17 18 -191 207 -216 235 -13 14 -67 72 -119 129 -52 57
-94 106 -93 110 1 4 -3 7 -10 7 -9 0 -12 -621 -12 -2733z"/>
<path d="M3536 3978 l2 -1487 118 -133 c66 -73 121 -135 124 -138 3 -3 55 -61
115 -130 61 -68 119 -134 130 -145 11 -12 45 -50 75 -85 30 -34 62 -70 71 -79
8 -9 125 -140 260 -291 134 -151 248 -280 254 -286 5 -6 39 -44 75 -84 36 -40
70 -78 75 -84 6 -6 100 -111 209 -233 109 -123 200 -223 202 -223 2 0 4 1099
4 2443 l0 2443 -857 0 -858 0 1 -1488z"/>
</g>
</svg>
